<?xml version="1.0" standalone="no"?>
<!DOCTYPE svg PUBLIC "-//W3C//DTD SVG 20010904//EN"
 "http://www.w3.org/TR/2001/REC-SVG-20010904/DTD/svg10.dtd">
<svg version="1.0" xmlns="http://www.w3.org/2000/svg"
 width="2258.000000pt" height="2258.000000pt" viewBox="0 0 2258.000000 2258.000000"
 preserveAspectRatio="xMidYMid meet">
<metadata>
Created by potrace 1.14, written by Peter Selinger 2001-2017
</metadata>
<g transform="translate(0.000000,2258.000000) scale(0.100000,-0.100000)"
fill="#000000" stroke="none">
<path d="M9228 16505 c-2 -2 -46 -6 -98 -10 -52 -3 -104 -8 -115 -10 -11 -3
-37 -7 -57 -10 -81 -11 -115 -17 -178 -32 -36 -8 -76 -17 -90 -20 -14 -2 -50
-11 -80 -20 -30 -9 -60 -18 -66 -19 -17 -3 -180 -63 -249 -91 -170 -71 -363
-181 -517 -296 l-88 -66 0 255 0 254 -2005 0 -2005 0 0 -210 0 -209 -62 42
c-183 124 -465 245 -698 298 -47 11 -92 21 -100 23 -8 2 -35 7 -60 11 -25 4
-52 9 -60 10 -8 1 -44 6 -80 10 -36 4 -74 10 -85 13 -11 3 -584 7 -1272 9
l-1253 4 -1 -20 c0 -27 0 -4707 0 -4725 1 -11 177 -14 1131 -13 1035 0 1130 1
1131 16 1 9 1 69 1 135 -1 137 -11 141 107 -34 l79 -115 508 -2 c280 -1 513
-2 518 -2 5 -1 2 -9 -6 -18 -36 -41 -298 -452 -298 -468 0 -2 -19 -36 -43 -77
-108 -184 -139 -275 -133 -393 12 -229 195 -410 424 -419 116 -5 184 19 357
126 125 77 195 115 380 209 88 45 178 94 200 110 22 15 57 30 78 33 21 3 79
22 130 42 51 20 164 60 252 90 88 30 171 63 185 73 18 13 51 20 105 24 44 3
123 14 175 26 52 11 120 23 150 26 30 3 66 8 80 10 25 4 80 11 155 21 214 27
467 80 526 109 32 16 64 23 110 23 41 0 122 16 224 42 88 22 170 43 182 46 12
2 34 9 49 14 15 6 28 9 29 8 2 -2 -9 -28 -24 -58 -30 -63 -83 -185 -137 -315
-20 -49 -41 -94 -46 -100 -4 -5 -8 -17 -8 -26 0 -10 -3 -19 -8 -21 -7 -3 -212
-422 -212 -434 0 -4 -9 -25 -20 -48 -10 -23 -35 -86 -55 -141 -34 -92 -119
-275 -179 -385 -14 -25 -72 -142 -130 -260 -58 -118 -147 -287 -197 -375 -81
-141 -161 -299 -354 -700 -29 -61 -75 -148 -103 -195 -27 -47 -88 -152 -136
-233 -47 -82 -97 -167 -110 -190 -33 -61 -129 -220 -139 -232 -4 -5 -24 -35
-45 -67 -68 -103 -133 -188 -188 -246 -172 -178 -241 -392 -192 -591 20 -81
65 -181 103 -226 82 -99 107 -123 170 -167 133 -94 292 -160 447 -185 82 -14
260 -7 338 12 207 50 374 139 457 243 21 26 40 49 43 52 7 7 48 101 54 125 9
33 18 88 21 125 4 51 22 95 123 295 97 193 246 500 345 710 33 71 79 163 102
205 23 41 83 158 132 260 84 173 118 244 188 395 15 33 93 193 173 355 80 162
146 297 147 300 0 3 13 30 27 60 32 69 114 260 120 279 2 8 23 -35 47 -95 125
-314 381 -705 705 -1079 71 -81 96 -110 126 -145 116 -136 453 -475 504 -507
116 -74 259 -80 391 -18 82 39 457 416 732 736 82 94 265 327 319 403 12 18
17 15 76 -46 92 -96 227 -176 327 -194 14 -3 28 -7 32 -10 17 -10 134 -19 259
-19 236 1 329 19 424 82 22 15 61 38 86 51 25 13 72 46 105 73 33 28 106 80
162 117 56 37 126 89 155 115 45 41 184 147 192 147 1 0 13 -24 26 -52 76
-171 249 -309 431 -343 13 -3 49 -10 79 -16 116 -24 250 -16 454 27 85 17 238
70 333 113 l107 50 28 -47 c80 -139 242 -247 418 -278 65 -11 188 -6 250 11 3
1 23 5 45 10 116 23 209 80 326 199 134 136 171 207 290 551 44 128 50 136
159 225 30 25 57 47 60 50 30 31 127 104 175 131 64 37 270 139 280 139 3 0
25 9 49 19 49 23 145 61 152 61 2 0 2 -12 -1 -27 -9 -49 -7 -140 5 -200 21
-102 106 -259 170 -312 16 -13 9 -21 -79 -84 -334 -242 -479 -459 -482 -722
-3 -266 147 -487 393 -579 141 -53 363 -66 528 -31 14 3 41 8 60 11 65 10 184
45 340 101 168 60 279 110 408 185 46 26 86 48 88 48 3 0 17 8 32 19 15 10 81
51 147 92 248 151 504 320 575 379 99 82 182 175 282 318 25 36 33 40 135 66
170 43 619 172 718 206 50 17 100 33 113 36 37 7 128 51 174 82 202 140 270
380 167 587 -63 127 -231 255 -376 288 -82 19 -281 12 -371 -13 -21 -5 -65
-12 -97 -15 -33 -3 -78 -11 -100 -17 -22 -5 -47 -11 -55 -13 -8 -2 -53 -13
-100 -24 -47 -12 -95 -23 -107 -26 -50 -11 -62 -14 -99 -24 -61 -17 -70 -14
-40 15 68 69 120 206 118 316 -1 155 -88 326 -206 407 -48 33 -188 82 -299
105 -85 18 -194 21 -247 7 -19 -5 -55 -12 -80 -15 -157 -20 -348 -82 -544
-176 l-89 -43 -21 29 c-38 54 -100 106 -161 134 -153 73 -288 80 -705 35 -97
-11 -392 -64 -485 -88 l-90 -23 -44 55 c-116 148 -260 211 -496 217 -119 3
-121 3 -246 -40 -156 -53 -208 -82 -282 -159 -70 -73 -91 -108 -151 -250 -26
-59 -66 -150 -91 -203 -25 -52 -45 -98 -45 -102 0 -4 -6 -19 -14 -34 -8 -14
-19 -43 -26 -65 -12 -34 -27 -64 -67 -128 -7 -11 -22 -38 -33 -60 -20 -37 -31
-44 -128 -83 -59 -24 -120 -50 -137 -58 -62 -30 -300 -123 -304 -119 -10 11
37 141 90 250 63 129 68 149 74 295 11 295 -143 526 -405 604 -89 27 -220 23
-316 -10 -155 -52 -236 -110 -373 -270 -52 -60 -109 -124 -128 -143 -18 -19
-33 -38 -33 -43 0 -4 -6 -8 -13 -8 -8 0 -13 15 -13 43 -2 111 -34 205 -99 292
-89 120 -241 220 -373 246 -92 17 -230 7 -327 -26 -44 -14 -133 -54 -198 -87
-128 -66 -194 -125 -235 -210 -12 -24 -41 -62 -65 -86 -24 -24 -61 -78 -82
-120 -21 -42 -53 -95 -69 -118 -17 -23 -51 -75 -76 -117 -25 -42 -47 -77 -51
-77 -3 0 -13 23 -23 50 -36 99 -171 341 -219 392 -6 7 -25 30 -41 51 -15 21
-66 76 -112 123 -237 236 -523 388 -859 456 -93 19 -142 22 -315 22 -198 0
-309 -12 -415 -44 -156 -48 -213 -69 -298 -111 -53 -27 -121 -64 -149 -84 -29
-19 -54 -33 -56 -30 -2 2 1 19 7 37 6 18 13 50 17 72 3 21 7 47 9 57 7 35 18
183 19 253 l2 68 59 25 59 25 105 -36 c236 -79 448 -124 676 -142 158 -13 517
-7 611 10 10 2 46 7 79 10 87 10 109 14 215 37 52 11 104 22 114 25 158 32
501 150 636 219 14 7 45 23 70 35 121 61 267 149 380 230 69 48 130 93 136 99
8 7 25 -1 55 -27 24 -20 49 -42 54 -48 18 -20 168 -130 255 -187 206 -134 507
-264 745 -323 68 -17 147 -34 175 -39 19 -3 42 -8 50 -10 8 -2 42 -7 75 -11
33 -3 62 -8 65 -9 14 -8 220 -18 365 -18 141 0 313 8 363 18 9 1 40 6 67 9 45
6 122 18 135 21 53 14 296 18 1311 18 664 0 1211 3 1216 6 7 5 91 201 97 226
1 6 7 19 13 30 6 11 11 22 11 25 1 8 91 236 121 305 5 11 14 34 21 51 l11 32
303 0 302 0 38 -97 c21 -53 42 -105 47 -116 5 -11 49 -119 98 -240 l89 -220
2551 -1 c1403 -1 2554 2 2557 7 2 5 4 199 4 431 -2 661 -9 2912 -11 3651 l-3
667 -2003 0 -2003 0 -2 -849 -3 -850 -147 332 c-81 183 -229 517 -328 742
-100 226 -187 424 -195 440 -7 17 -29 65 -49 108 l-35 77 -901 0 -901 0 -18
-42 c-10 -24 -28 -64 -40 -90 -56 -126 -212 -479 -221 -503 -4 -11 -19 -45
-33 -75 -29 -64 -143 -320 -164 -368 l-14 -33 -142 173 c-125 152 -335 375
-407 433 -366 294 -761 465 -1245 540 -276 43 -697 40 -965 -6 -100 -17 -114
-20 -205 -41 -427 -98 -842 -319 -1152 -614 l-62 -59 -73 70 c-135 129 -206
185 -351 280 -247 161 -583 292 -887 348 -14 3 -41 8 -60 12 -60 11 -73 13
-150 20 -41 4 -86 9 -100 12 -28 5 -467 13 -472 8z"/>
</g>
</svg>
